<?xml version="1.0" encoding="UTF-8"?>
<svg width="37px" height="36px" viewBox="0 0 37 36" version="1.1" xmlns="http://www.w3.org/2000/svg" xmlns:xlink="http://www.w3.org/1999/xlink">
    <!-- Generator: Sketch 55.2 (78181) - https://sketchapp.com -->
    <title>Artboard Copy 5</title>
    <desc>Created with Sketch.</desc>
    <g id="Artboard-Copy-5" stroke="none" stroke-width="1" fill="none" fill-rule="evenodd">
        <g id="nt-bell" opacity="0.300000012" transform="translate(8.000000, 6.000000)">
            <g id="Icons"></g>
        </g>
        <g id="nt-bell">
            <rect id="Rectangle" x="0" y="0" width="37" height="36"></rect>
            <path d="M8,25.95 L8,24.3074865 C10.3238516,23.1074865 11.4905183,21.3383243 11.5,19 C11.5182166,14.5075289 11.4857774,9.50748652 15.9857774,8.70748652 C17.4822821,8.44144125 16.5857774,6.00748652 18.5,6 C20.4142226,6.00748652 19.5177179,8.44144125 21.0142226,8.70748652 C25.5142226,9.50748652 25.4817834,14.5075289 25.5,19 C25.5094817,21.3383243 26.6761484,23.1074865 29,24.3074865 L29,25.95 L8,25.95 Z M21.8553117,26.95 C21.4413143,28.4213731 20.0895093,29.5 18.4857774,29.5 C16.8820455,29.5 15.5302405,28.4213731 15.1162431,26.95 L21.8553117,26.95 Z" id="Combined-Shape" fill="#000000" fill-rule="nonzero" opacity="0.300000012"></path>
        </g>
    </g>
</svg>