<?xml version="1.0" encoding="UTF-8"?>
<svg width="60px" height="60px" viewBox="0 0 60 60" version="1.1" xmlns="http://www.w3.org/2000/svg" xmlns:xlink="http://www.w3.org/1999/xlink">
    <!-- Generator: Sketch 60 (88103) - https://sketch.com -->
    <title>Success_Icon</title>
    <desc>Created with Sketch.</desc>
    <defs>
        <filter x="-5.7%" y="-21.6%" width="111.3%" height="143.2%" filterUnits="objectBoundingBox" id="filter-1">
            <feOffset dx="0" dy="3" in="SourceAlpha" result="shadowOffsetOuter1"></feOffset>
            <feGaussianBlur stdDeviation="5" in="shadowOffsetOuter1" result="shadowBlurOuter1"></feGaussianBlur>
            <feColorMatrix values="0 0 0 0 0   0 0 0 0 0   0 0 0 0 0  0 0 0 0.2 0" type="matrix" in="shadowBlurOuter1" result="shadowMatrixOuter1"></feColorMatrix>
            <feMerge>
                <feMergeNode in="shadowMatrixOuter1"></feMergeNode>
                <feMergeNode in="SourceGraphic"></feMergeNode>
            </feMerge>
        </filter>
    </defs>
    <g id="Current" stroke="none" stroke-width="1" fill="none" fill-rule="evenodd">
        <g id="NotificationBar+EmailVerification" transform="translate(-915.000000, -446.000000)">
            <g id="Verify-Email-Window-Success" filter="url(#filter-1)" transform="translate(901.000000, 429.000000)">
                <g id="Success_Icon" transform="translate(24.000000, 24.000000)">
                    <path d="M20,0 C31.045695,0 40,8.954305 40,20 C40,31.045695 31.045695,40 20,40 C8.954305,40 0,31.045695 0,20 C0,8.954305 8.954305,0 20,0 Z M20,3 C10.6111593,3 3,10.6111593 3,20 C3,29.3888407 10.6111593,37 20,37 C29.3888407,37 37,29.3888407 37,20 C37,10.6111593 29.3888407,3 20,3 Z" id="Combined-Shape" fill="#3EB14D" fill-rule="nonzero"></path>
                    <g id="8px---Check" transform="translate(11.000000, 12.000000)" stroke="#3EB14D" stroke-width="4">
                        <polyline points="-4.8316906e-13 8.0666959 8.5 14 17 0"></polyline>
                    </g>
                </g>
            </g>
        </g>
    </g>
</svg>